<svg xmlns="http://www.w3.org/2000/svg" viewBox="0 0 512 512" width="100%" height="100%">
  <defs>
    <!-- Background Gradient -->
    <linearGradient id="bgGrad" x1="0%" y1="0%" x2="100%" y2="100%">
      <stop offset="0%" stop-color="#f97316" /> <!-- Vibrant Orange -->
      <stop offset="50%" stop-color="#ea580c" /> <!-- Deep Orange -->
      <stop offset="100%" stop-color="#b91c1c" /> <!-- Rich Crimson Red -->
    </linearGradient>

    <!-- Metallic/Gold Border Gradient -->
    <linearGradient id="borderGrad" x1="0%" y1="0%" x2="0%" y2="100%">
      <stop offset="0%" stop-color="#fef08a" stop-opacity="0.8" />
      <stop offset="100%" stop-color="#f97316" stop-opacity="0.2" />
    </linearGradient>

    <!-- Playful Pattern Elements -->
    <linearGradient id="sunRayGrad" x1="0%" y1="0%" x2="100%" y2="100%">
      <stop offset="0%" stop-color="#ffffff" stop-opacity="0.15" />
      <stop offset="100%" stop-color="#ffffff" stop-opacity="0" />
    </linearGradient>

    <!-- Modern Soft Drop Shadow filter for the character -->
    <filter id="dropShadow" x="-10%" y="-10%" width="130%" height="130%">
      <feDropShadow dx="0" dy="12" stdDeviation="10" flood-color="#000000" flood-opacity="0.3" />
    </filter>

    <!-- Glow for Sparkles -->
    <filter id="sparkleGlow" x="-20%" y="-20%" width="140%" height="140%">
      <feGaussianBlur stdDeviation="3" result="blur" />
      <feComposite in="SourceGraphic" in2="blur" operator="over" />
    </filter>
  </defs>

  <!-- Main Squircle Background (iOS/Android clean squircle style) -->
  <rect x="0" y="0" width="512" height="512" rx="120" fill="url(#bgGrad)" />

  <!-- Playful Decorative Sun Rays / Geometric Swooshes -->
  <path d="M 0 0 L 250 0 C 180 180, 180 320, 0 512 Z" fill="url(#sunRayGrad)" />
  <circle cx="430" cy="90" r="160" fill="#ffffff" opacity="0.06" />
  <circle cx="80" cy="420" r="120" fill="#ffffff" opacity="0.04" />

  <!-- Cute learning sparkles / stars -->
  <!-- Star 1 top right -->
  <path d="M 400 120 L 405 135 L 420 140 L 405 145 L 400 160 L 395 145 L 380 140 L 395 135 Z" fill="#fef08a" filter="url(#sparkleGlow)" />
  <!-- Small star near it -->
  <path d="M 440 180 L 442 187 L 450 190 L 442 193 L 440 200 L 438 193 L 430 190 L 438 187 Z" fill="#ffffff" opacity="0.9" />
  <!-- Star 2 bottom left -->
  <path d="M 100 340 L 104 350 L 115 354 L 104 358 L 100 368 L 96 358 L 85 354 L 96 350 Z" fill="#fef08a" filter="url(#sparkleGlow)" opacity="0.8" />

  <!-- Premium Ring Border (inset) -->
  <rect x="15" y="15" width="482" height="482" rx="105" fill="none" stroke="url(#borderGrad)" stroke-width="8" opacity="0.5" />

  <!-- Core Letter "அ" styled with elegant curves and premium shadow -->
  <text x="50%" y="54%"
        dominant-baseline="middle"
        text-anchor="middle"
        font-family="system-ui, -apple-system, BlinkMacSystemFont, 'Segoe UI', Roboto, Helvetica, Arial, sans-serif"
        font-weight="900"
        font-size="285"
        fill="#ffffff"
        filter="url(#dropShadow)">அ</text>

  <!-- Cute subtle smile vector under the character to convey child-friendliness -->
  <path d="M 210 405 Q 256 425 302 405" fill="none" stroke="#fef08a" stroke-width="8" stroke-linecap="round" opacity="0.9" filter="url(#sparkleGlow)" />
</svg>
